<svg width="151" height="48" viewBox="0 0 151 48" fill="none" xmlns="http://www.w3.org/2000/svg">
<path fill-rule="evenodd" clip-rule="evenodd" d="M24.8812 24.0271V35.6699H30.7023C35.2362 28.0907 35.3132 27.9094 37.2543 24.0271C39.1955 20.1448 40.8976 16.2929 42.3451 12.3843H30.7452H30.7023L24.8812 24.0271Z" fill="#15F5BA"/>
<path d="M56.7079 35.2514L47.9291 12.4654H53.3514L60.0322 30.8945H57.8054L64.5828 12.4654H69.9407L61.0653 35.2514H56.7085H56.7079ZM76.9762 35.6061C75.2765 35.6061 73.7652 35.2568 72.4416 34.5575C71.1181 33.8581 70.0802 32.8846 69.3272 31.6368C68.5742 30.389 68.1974 28.9796 68.1974 27.4087C68.1974 25.8377 68.5689 24.4337 69.3111 23.1967C70.0533 21.9596 71.0591 20.986 72.329 20.276C73.5982 19.5659 75.0291 19.2112 76.6215 19.2112C78.1709 19.2112 79.5368 19.5445 80.7202 20.2116C81.9036 20.8787 82.8342 21.804 83.5121 22.9874C84.19 24.1708 84.5286 25.5265 84.5286 27.0539C84.5286 27.3335 84.5125 27.6292 84.4803 27.9416C84.4481 28.2534 84.3891 28.6141 84.3026 29.0231L70.7795 29.0553V25.6666L82.2047 25.6344L80.0745 27.0545C80.0531 26.1507 79.913 25.4031 79.6548 24.8117C79.3967 24.2203 79.0145 23.7684 78.509 23.456C78.0034 23.1442 77.3846 22.988 76.653 22.988C75.8786 22.988 75.2061 23.1657 74.6362 23.5204C74.0662 23.8757 73.6251 24.3759 73.3127 25.021C73.0009 25.6666 72.8447 26.4518 72.8447 27.3771C72.8447 28.3023 73.0116 29.0929 73.3448 29.7493C73.6781 30.4057 74.1515 30.9112 74.765 31.2659C75.3784 31.6207 76.1046 31.7983 76.9434 31.7983C77.7178 31.7983 78.4172 31.6636 79.0413 31.3947C79.6656 31.1258 80.214 30.7222 80.6874 30.1845L83.3982 32.8953C82.6238 33.7991 81.6878 34.477 80.5902 34.9289C79.4927 35.3808 78.2878 35.6067 76.9756 35.6067L76.9762 35.6061ZM94.5015 35.6061C92.8876 35.6061 91.4246 35.2514 90.1124 34.5414C88.7996 33.8313 87.767 32.8524 87.0141 31.6046C86.2611 30.3568 85.8843 28.9581 85.8843 27.4087C85.8843 25.8377 86.2665 24.4337 87.0302 23.1967C87.7939 21.9596 88.8324 20.986 90.1446 20.276C91.4568 19.5659 92.9311 19.2112 94.5665 19.2112C95.7928 19.2112 96.9172 19.421 97.9391 19.8408C98.9609 20.2605 99.8701 20.8894 100.666 21.7289L97.5032 24.8916C97.1372 24.4826 96.7127 24.1815 96.2286 23.9878C95.7445 23.794 95.1907 23.6974 94.5665 23.6974C93.8564 23.6974 93.2269 23.8536 92.6784 24.1654C92.1299 24.4772 91.6994 24.9077 91.3876 25.4562C91.0758 26.0047 90.9196 26.645 90.9196 27.3765C90.9196 28.108 91.0758 28.7536 91.3876 29.3129C91.6994 29.8721 92.1352 30.3132 92.6945 30.6364C93.2537 30.9589 93.8779 31.1205 94.5665 31.1205C95.2121 31.1205 95.7874 31.0078 96.293 30.7818C96.7986 30.5559 97.2344 30.2387 97.6004 29.8297L100.731 32.9925C99.9136 33.8534 98.9883 34.5038 97.9552 34.945C96.9226 35.3861 95.7713 35.6067 94.5021 35.6067L94.5015 35.6061ZM110.219 35.6061C108.347 35.6061 106.739 35.2997 105.394 34.6862C104.049 34.0728 102.818 33.1421 101.699 31.8943L104.991 28.6344C105.722 29.4738 106.535 30.1243 107.427 30.5869C108.32 31.0495 109.358 31.2808 110.542 31.2808C111.618 31.2808 112.451 31.0871 113.043 30.6996C113.635 30.3121 113.931 29.7743 113.931 29.0857C113.931 28.4615 113.737 27.956 113.35 27.569C112.963 27.1815 112.452 26.8483 111.818 26.5686C111.183 26.289 110.483 26.0202 109.72 25.762C108.956 25.5039 108.198 25.2082 107.444 24.8743C106.691 24.541 105.997 24.1213 105.362 23.6158C104.727 23.1102 104.216 22.4753 103.829 21.7116C103.442 20.9479 103.248 19.985 103.248 18.8231C103.248 17.4244 103.587 16.2196 104.265 15.2084C104.942 14.1973 105.884 13.4282 107.089 12.9006C108.294 12.3736 109.681 12.1101 111.252 12.1101C112.845 12.1101 114.302 12.3897 115.625 12.9495C116.949 13.5087 118.04 14.273 118.901 15.2412L115.609 18.5011C114.921 17.7911 114.227 17.2641 113.527 16.9195C112.828 16.5755 112.038 16.4032 111.155 16.4032C110.273 16.4032 109.574 16.5701 109.057 16.9034C108.541 17.2366 108.283 17.7154 108.283 18.3396C108.283 18.9203 108.477 19.3883 108.863 19.7436C109.251 20.0983 109.762 20.4053 110.396 20.6635C111.031 20.9216 111.73 21.1798 112.494 21.4379C113.258 21.6961 114.016 21.9971 114.77 22.3417C115.523 22.6857 116.217 23.1215 116.852 23.6492C117.487 24.1762 117.998 24.8433 118.384 25.6499C118.772 26.4566 118.965 27.4522 118.965 28.6356C118.965 30.8087 118.191 32.5138 116.641 33.7514C115.092 34.9885 112.951 35.6073 110.219 35.6073L110.219 35.6061ZM126.26 35.3158L119.805 19.5659H125.13L129.229 32.0565H127.26L131.456 19.5659H136.781L130.068 35.3158H126.26ZM122.226 41.8678L126.938 31.7012L130.068 35.3158L127.293 41.8678H122.226ZM143.785 35.6389C142.86 35.6389 141.951 35.5209 141.058 35.2842C140.165 35.0475 139.337 34.7089 138.573 34.2677C137.81 33.8265 137.159 33.3156 136.621 32.7349L139.429 29.8947C139.945 30.4539 140.559 30.8898 141.269 31.2016C141.979 31.5134 142.753 31.6696 143.593 31.6696C144.173 31.6696 144.62 31.5837 144.932 31.4114C145.244 31.2391 145.4 31.0024 145.4 30.7014C145.4 30.3138 145.212 30.0181 144.836 29.8137C144.459 29.6092 143.98 29.4261 143.4 29.2652C142.819 29.1036 142.205 28.9265 141.56 28.7328C140.914 28.539 140.301 28.2701 139.72 27.9261C139.139 27.5821 138.666 27.1034 138.3 26.4899C137.934 25.8765 137.751 25.0967 137.751 24.1499C137.751 23.1388 138.009 22.2618 138.526 21.5196C139.042 20.7774 139.774 20.1907 140.72 19.7609C141.667 19.3304 142.775 19.1152 144.045 19.1152C145.379 19.1152 146.611 19.3465 147.74 19.8092C148.87 20.2718 149.79 20.955 150.5 21.8588L147.692 24.699C147.197 24.1183 146.643 23.7094 146.03 23.4727C145.416 23.236 144.82 23.118 144.238 23.118C143.679 23.118 143.259 23.1984 142.98 23.36C142.7 23.5216 142.56 23.7529 142.56 24.054C142.56 24.3765 142.743 24.6346 143.109 24.8284C143.474 25.0222 143.948 25.1945 144.529 25.3447C145.109 25.4955 145.723 25.678 146.369 25.8932C147.014 26.1084 147.627 26.3987 148.208 26.7648C148.789 27.1308 149.262 27.6203 149.628 28.2332C149.994 28.8466 150.177 29.6479 150.177 30.6376C150.177 32.165 149.602 33.3812 148.45 34.2844C147.299 35.1882 145.745 35.6401 143.786 35.6401L143.785 35.6389Z" fill="#211951"/>
<path fill-rule="evenodd" clip-rule="evenodd" d="M13.2386 0.741634C13.2386 7.17203 8.02617 12.3844 1.59578 12.3844C0.865458 16.2656 0.5 20.1294 0.5 24.0272C0.5 27.925 0.865458 31.7889 1.59578 35.67C8.02617 35.67 13.2386 40.8824 13.2386 47.3128C17.1197 47.4344 21.0002 47.9215 24.8814 47.6783C24.8814 43.6755 24.8814 39.6728 24.8814 35.67C21.9666 31.7889 19.542 27.9131 17.599 24.0272C15.6561 20.1413 14.205 16.2656 13.2386 12.3844H13.2815H19.0597H24.8808V0.376176C20.9996 0.132935 17.1191 0.254556 13.238 0.741634H13.2386Z" fill="#5677FC"/>
</svg>
